<?xml version="1.0" encoding="utf-8"?><svg xml:space="preserve" viewBox="0 0 100 100" y="0" x="0" xmlns="http://www.w3.org/2000/svg" id="圖層_1" version="1.1" width="200px" height="200px" xmlns:xlink="http://www.w3.org/1999/xlink" style="width:100%;height:100%;background-size:initial;background-repeat-y:initial;background-repeat-x:initial;background-position-y:initial;background-position-x:initial;background-origin:initial;background-image:initial;background-color:rgb(255, 255, 255);background-clip:initial;background-attachment:initial;animation-play-state:paused" ><g class="ldl-scale" style="transform-origin:50% 50%;transform:rotate(0deg) scale(0.8, 0.8);animation-play-state:paused" ><path fill="#e15b64" d="M83.1 78.8H16.9V47.6c0-18.3 14.8-33.1 33.1-33.1s33.1 14.8 33.1 33.1v31.2z" style="fill:rgb(225, 91, 100);animation-play-state:paused" ></path>
<path fill="#983733" d="M59.5 78.8h-19V49.4c0-5.2 4.3-9.5 9.5-9.5s9.5 4.3 9.5 9.5v29.4z" style="fill:rgb(152, 55, 51);animation-play-state:paused" ></path>
<path stroke-linecap="round" stroke-width="5.231" stroke="#fff" fill="#666" stroke-miterlimit="10" d="M27.8 34.2c3.3-5.3 8.5-9.4 14.7-11.2" style="stroke:rgb(255, 255, 255);fill:rgb(102, 102, 102);animation-play-state:paused" ></path>
<path stroke-linecap="round" stroke-width="5.231" stroke="#fff" fill="#666" stroke-miterlimit="10" d="M23.9 46.7c.1-1.1.2-2.2.4-3.3" style="stroke:rgb(255, 255, 255);fill:rgb(102, 102, 102);animation-play-state:paused" ></path>
<path fill="#333" d="M92.5 85.4h-85V77c0-5.5 4.5-10 10.1-10h64.7c5.6 0 10.1 4.5 10.1 10.1v8.3z" style="fill:rgb(51, 51, 51);animation-play-state:paused" ></path>
<metadata xmlns:d="https://loading.io/stock/" style="animation-play-state:paused" ><d:name style="animation-play-state:paused" >ambulance</d:name>


<d:tags style="animation-play-state:paused" >ambulance,emergency,fire engine,police car,first aid,urgency,emergency room,siren</d:tags>


<d:license style="animation-play-state:paused" >by</d:license>


<d:slug style="animation-play-state:paused" >pl5pjf</d:slug></metadata></g><!-- generated by https://loading.io/ --></svg>