<?xml version="1.0" encoding="UTF-8" standalone="no"?>
<svg
   xmlns:dc="http://purl.org/dc/elements/1.1/"
   xmlns:cc="http://creativecommons.org/ns#"
   xmlns:rdf="http://www.w3.org/1999/02/22-rdf-syntax-ns#"
   xmlns:svg="http://www.w3.org/2000/svg"
   xmlns="http://www.w3.org/2000/svg"
   version="1.1"
   id="svg9018"
   viewBox="0 0 701.03176 953.41518"
   height="269.07495mm"
   width="197.84674mm">
  <defs
     id="defs9020" />
  <metadata
     id="metadata9023">
    <rdf:RDF>
      <cc:Work
         rdf:about="">
        <dc:format>image/svg+xml</dc:format>
        <dc:type
           rdf:resource="http://purl.org/dc/dcmitype/StillImage" />
        <dc:title></dc:title>
      </cc:Work>
    </rdf:RDF>
  </metadata>
  <g
     transform="translate(1538.1473,252.09231)"
     id="layer1">
    <g
       id="g9581">
      <path
         style="fill:#238244;fill-opacity:1"
         d="m -1323.5884,696.16487 c -122.1872,-1.69625 -195.1151,-6.25546 -202.689,-12.67133 -13.7562,-11.65291 -15.3144,-148.57607 -5.9266,-520.94241 4.7487,-188.362475 8.4756,-236.818416 19.0439,-247.605796 9.1375,-9.325751 28.3756,-12.676411 63.1445,-10.997355 l 50.0032,2.414651 2.7922,-29.09432 2.7913,-29.0944 60.6883,0 c 60.4165,0 60.7114,-0.12272 66.0784,-27.51357 18.9824,-96.87414 158.5438,-97.05511 179.3794,-0.23279 5.1924,24.13007 8.7864,25.82177 67.3854,31.71538 l 61.90079,6.22562 0,31.27726 0,31.277249 52.36594,0 c 34.35201,0 55.97515,4.439359 62.85856,12.905389 7.95165,9.779073 8.635,101.818111 2.82161,379.945112 -4.22039,201.87195 -10.69218,372.02724 -14.38335,378.12291 -4.89394,8.08174 -43.3621,10.51902 -142.05341,9.00038 -74.43904,-1.14543 -221.22864,-3.27499 -326.20114,-4.73225 z M -929.25968,386.9744 c 3.22432,-123.7877 5.87041,-264.96708 5.8811,-313.731934 0,-88.517056 0,-88.663373 -22.25392,-88.663373 -14.78606,0 -22.27352,5.059087 -22.27352,15.05031178 0,13.56076822 -12.04374,14.46076922 -121.68558,9.09368012 -66.9275,-3.27618 -163.1491,-5.9566331 -213.8259,-5.9566331 -74.0363,0 -92.1402,-2.55968845 -92.1402,-13.0276968 0,-12.674223 -32.8231,-29.251182 -41.1303,-20.772418 -2.2817,2.329437 -6.0557,110.122092 -8.3864,239.539433 -2.3316,129.41723 -5.9052,270.95517 -7.9436,314.52871 l -3.7046,79.22459 77.3569,3.02192 c 42.546,1.66215 159.9061,3.86346 260.8007,4.89194 l 183.44382,1.87003 z M -1389.73,550.65535 c -2.2728,-3.75405 -1.9476,-34.61291 0.7216,-68.57525 l 4.8565,-61.74972 63.3442,2.64607 63.3441,2.64609 2.6176,65.92918 2.6176,65.92917 -66.6852,0 c -36.6765,0 -68.5445,-3.07148 -70.8182,-6.82554 z m 113.2885,-40.91628 c 2.9552,-11.25343 5.4267,-29.66813 5.4935,-40.92156 0.1158,-18.75353 -3.9665,-20.46078 -48.8797,-20.46078 l -49.0018,0 0,40.92157 0,40.92155 43.5083,0 c 37.5879,0 44.2387,-2.78403 48.8797,-20.46078 z m -110.2068,-188.69384 0,-63.65576 66.8206,0 66.8206,0 0,63.65576 0,63.65576 -66.8206,0 -66.8206,0 z m 115.8224,0 0,-45.4684 -49.0018,0 -49.0018,0 0,45.4684 0,45.46839 49.0018,0 49.0018,0 z m -111.978,-112.01477 c -2.6434,-7.0325 -3.5878,-36.88114 -2.0981,-66.3302 l 2.7084,-53.543855 66.8206,0 c 36.7513,0 69.7265,3.708014 75.8517,-0.338309 21.6134,-14.277713 33.0587,-3.005073 14.4781,17.211634 -11.8432,12.88574 -16.4145,-8.940529 -20.7161,64.96979 l -2.4422,48.27586 -65.0733,-0.13302 c -49.2504,-0.10068 -65.8744,-0.39011 -69.5291,-10.1119 z m 111.978,-26.20916 c 0,-15.56028 -2.3762,-17.58108 -10.6913,-9.09368 -17.3493,17.70767 -39.1729,12.55328 -50.0531,-11.82178 -8.2314,-18.43771 -7.7583,-22.7342 2.4982,-22.7342 6.9565,0 15.2868,4.35869 18.5129,9.68604 3.839,6.34057 11.7141,4.28331 22.7991,-5.95618 26.3933,-24.37969 20.489,-31.0109 -27.6129,-31.0109 l -44.547,0 0,40.39867 0,40.39867 37.8649,3.48097 c 20.8258,1.91459 41.9248,2.09032 45.5999,2.96412 3.6751,0.87391 5.6293,-5.30838 5.6293,-16.31173 z m 128.5503,-312.56276 c 29.7333,-30.34861 9.4778,-76.64672 -33.5333,-76.64672 -35.1102,0 -50.47,13.83787 -50.47,45.46841 0,13.00396 4.8111,28.55414 10.6913,34.55597 15.1371,15.45035 56.7431,13.53349 73.312,-3.37766 z"
         id="path9577" />
      <path
         style="fill:#c54444;fill-opacity:1;fill-rule:evenodd;stroke:none;stroke-width:1px;stroke-linecap:butt;stroke-linejoin:miter;stroke-opacity:1"
         d="m -1304.9476,150.36645 c -5.4648,-10.76487 -20.3063,-13.9257 -20.3063,-13.9257 0,0 -11.0753,-2.62333 -13.8938,1.06876 -5.7234,7.49733 0.9239,19.45498 5.3438,27.78758 3.3051,6.23109 14.9625,14.96254 14.9625,14.96254 l 17.1,10.68754 c 0,0 13.2239,10.7992 22.412,-6.07755 3.1084,-5.70963 43.8508,-68.73518 43.8508,-68.73518 0,0 20.0136,-13.9734 22.7468,-21.37506 2.7332,-7.401655 0.8039,-12.471259 -1.7546,-16.031298 -2.5586,-3.560039 -9.236,-4.275012 -9.236,-4.275012 0,0 -4.532,0.377554 -11.0543,3.892171 -6.5223,3.514616 -23.1458,21.757909 -23.1458,21.757909 l -34.2001,41.68137 c 0,0 -10.306,13.54397 -12.825,8.58193 z"
         id="path9579" />
    </g>
  </g>
</svg>
