<?xml version="1.0" encoding="UTF-8" standalone="no"?>
<svg
   height="8.6108704in"
   viewBox="0 0 619.98268 619.98266"
   width="8.6108704in"
   version="1.1"
   id="svg38"
   sodipodi:docname="checklist.svg"
   inkscape:version="1.1 (c4e8f9e, 2021-05-24)"
   xmlns:inkscape="http://www.inkscape.org/namespaces/inkscape"
   xmlns:sodipodi="http://sodipodi.sourceforge.net/DTD/sodipodi-0.dtd"
   xmlns="http://www.w3.org/2000/svg"
   xmlns:svg="http://www.w3.org/2000/svg">
  <defs
     id="defs42" />
  <sodipodi:namedview
     id="namedview40"
     pagecolor="#ffffff"
     bordercolor="#666666"
     borderopacity="1.0"
     inkscape:pageshadow="2"
     inkscape:pageopacity="0.0"
     inkscape:pagecheckerboard="0"
     inkscape:document-units="pt"
     showgrid="false"
     units="in"
     width="512in"
     fit-margin-left="1.5"
     fit-margin-top="0"
     fit-margin-right="0"
     fit-margin-bottom="0"
     inkscape:zoom="0.55151367"
     inkscape:cx="-40.796813"
     inkscape:cy="482.30899"
     inkscape:window-width="1792"
     inkscape:window-height="1098"
     inkscape:window-x="0"
     inkscape:window-y="0"
     inkscape:window-maximized="1"
     inkscape:current-layer="svg38" />
  <path
     d="m 142,64 h 336 c 13.2539,0 24,10.746094 24,24 v 444 c 0,13.25391 -10.7461,24 -24,24 H 142 c -13.2539,0 -24,-10.74609 -24,-24 V 88 c 0,-13.253906 10.7461,-24 24,-24 z m 0,0"
     fill="#79b2ff"
     id="path2" />
  <path
     d="M 388.332,104 H 462 V 516 H 158 V 104 h 73.668"
     fill="#ffffff"
     id="path4" />
  <path
     d="m 256.082,136 h 107.8321 c 11.7382,0 21.25,-9.51563 21.25,-21.25 V 64 H 234.832 v 50.75 c 0,11.73437 9.5157,21.25 21.25,21.25 z m 0,0"
     fill="#ff6977"
     id="path6" />
  <path
     d="m 256.082,136 h 107.8321 c 11.7382,0 21.25,-9.51563 21.25,-21.25 V 64 H 234.832 v 50.75 c 0,11.73437 9.5157,21.25 21.25,21.25 z m 0,0"
     fill="#bdd9ff"
     id="path8" />
  <path
     d="m 447.6836,314.55859 117.168,-117.16796 c 10.3281,-10.32813 27.0742,-10.32813 37.4023,0 10.3281,10.32812 10.3281,27.07421 0,37.40234 l -117.168,117.16797 -67.4218,30.01562 z m 0,0"
     fill="#ffc15a"
     id="path10" />
  <path
     d="m 485.0859,351.96094 -37.4023,-37.40235 -30.0195,67.41797 z m 0,0"
     fill="#98a1b3"
     id="path12" />
  <path
     d="m 589.3945,247.65234 12.8594,-12.85937 c 10.3281,-10.32813 10.3281,-27.07422 0,-37.40235 -10.3281,-10.32812 -27.0742,-10.32812 -37.4023,0 l -12.8594,12.85547 z m 0,0"
     fill="#ff6977"
     id="path14" />
  <path
     d="m 206,184 h 64 v 64 h -64 z m 0,0"
     fill="#cbe558"
     id="path16" />
  <path
     d="m 206,294 h 64 v 64 h -64 z m 0,0"
     fill="#cbe558"
     id="path18" />
  <path
     d="m 206,404 h 64 v 64 h -64 z m 0,0"
     fill="#ff6977"
     id="path20" />
  <path
     d="m 310,506 c -2.6289,0 -5.2109,1.07031 -7.0703,2.92969 C 301.0703,510.78906 300,513.37109 300,516 c 0,2.62891 1.0703,5.21094 2.9297,7.07031 C 304.7891,524.92969 307.3711,526 310,526 c 2.6289,0 5.2109,-1.07031 7.0703,-2.92969 C 318.9297,521.21094 320,518.62891 320,516 c 0,-2.62891 -1.0703,-5.21094 -2.9297,-7.07031 C 315.2109,507.07031 312.6289,506 310,506 Z m 0,0"
     id="path22" />
  <path
     d="m 609.3242,190.32031 c -14.2109,-14.21093 -37.332,-14.21093 -51.5429,0 L 512,236.10156 V 88 C 512,69.253906 496.7461,54 478,54 H 142 c -18.7461,0 -34,15.253906 -34,34 v 444 c 0,18.74609 15.2539,34 34,34 h 336 c 18.7461,0 34,-15.25391 34,-34 V 339.19141 l 97.3242,-97.32813 c 14.211,-14.21094 14.211,-37.33203 0,-51.54297 z M 492,88 v 168.10156 l -20,20 V 104 c 0,-5.523438 -4.4766,-10 -10,-10 H 395.168 V 74 H 478 c 7.7188,0 14,6.28125 14,14 z m -54.6016,274.24609 13.5,-30.32812 16.8282,16.82812 z M 375.168,74 v 40.75 c 0,6.20312 -5.0469,11.25 -11.25,11.25 H 256.082 c -6.2031,0 -11.25,-5.04688 -11.25,-11.25 V 74 Z M 478,546 H 142 c -7.7187,0 -14,-6.28125 -14,-14 V 88 c 0,-7.71875 6.2813,-14 14,-14 h 82.832 V 94 H 158 c -5.5234,0 -10,4.476562 -10,10 v 412 c 0,5.52344 4.4766,10 10,10 h 112 c 5.5234,0 10,-4.47656 10,-10 0,-5.52344 -4.4766,-10 -10,-10 H 168 V 114 h 56.832 v 0.75 c 0,17.23047 14.0196,31.25 31.25,31.25 h 107.836 c 17.2304,0 31.25,-14.01953 31.25,-31.25 V 114 H 452 v 182.10156 l -11.3906,11.38672 c -0.8633,0.86719 -1.5625,1.88672 -2.0625,3.00391 l -30.0156,67.41797 c -1.6836,3.78515 -0.8633,8.21093 2.0625,11.14062 1.9179,1.91406 4.4765,2.92969 7.0742,2.92969 1.375,0 2.7578,-0.28125 4.0664,-0.86328 L 452,377.64063 V 506 H 350 c -5.5234,0 -10,4.47656 -10,10 0,5.52344 4.4766,10 10,10 h 112 c 5.5195,0 10,-4.47656 10,-10 V 368.73438 l 17.1523,-7.63672 c 1.0547,-0.46875 2.0118,-1.1211 2.8477,-1.92188 V 532 c 0,7.71875 -6.2812,14 -14,14 z m 79.9102,-281.00781 -72.8243,72.82812 -23.2617,-23.26172 90.168,-90.16796 23.2617,23.26171 z m 37.2734,-37.26953 -5.7891,5.78515 -23.2578,-23.25781 5.7852,-5.78516 c 6.414,-6.41406 16.8476,-6.41406 23.2617,0 6.4102,6.41016 6.4102,16.84375 0,23.25782 z m 0,0"
     id="path24" />
  <path
     d="m 270,174 h -64 c -5.5234,0 -10,4.47656 -10,10 v 64 c 0,5.52344 4.4766,10 10,10 h 64 c 5.5234,0 10,-4.47656 10,-10 v -64 c 0,-5.52344 -4.4766,-10 -10,-10 z m -10,64 h -44 v -44 h 44 z m 0,0"
     id="path26" />
  <path
     d="m 270,284 h -64 c -5.5234,0 -10,4.47656 -10,10 v 64 c 0,5.52344 4.4766,10 10,10 h 64 c 5.5234,0 10,-4.47656 10,-10 v -64 c 0,-5.52344 -4.4766,-10 -10,-10 z m -10,64 h -44 v -44 h 44 z m 0,0"
     id="path28" />
  <path
     d="m 270,394 h -64 c -5.5234,0 -10,4.47656 -10,10 v 64 c 0,5.52344 4.4766,10 10,10 h 64 c 5.5234,0 10,-4.47656 10,-10 v -64 c 0,-5.52344 -4.4766,-10 -10,-10 z m -10,64 h -44 v -44 h 44 z m 0,0"
     id="path30" />
  <path
     d="m 341.5781,245.64453 c 1.9532,1.95313 4.5117,2.92969 7.0703,2.92969 2.5586,0 5.1172,-0.97656 7.0704,-2.92969 l 45.1484,-45.14844 c 3.9023,-3.90234 3.9023,-10.23437 0,-14.14062 -3.9063,-3.90625 -10.2383,-3.90625 -14.1445,0 l -38.0743,38.07422 -15.1757,-15.17578 c -3.9063,-3.90625 -10.2344,-3.90625 -14.1446,0 -3.9023,3.90625 -3.9023,10.23828 0,14.14062 z m 0,0"
     id="path32" />
  <path
     d="m 341.5781,355.64453 c 1.875,1.875 4.418,2.92969 7.0703,2.92969 2.6524,0 5.1954,-1.05469 7.0704,-2.92969 L 400.8672,310.5 c 3.9023,-3.90625 3.9023,-10.23828 0,-14.14453 -3.9063,-3.90235 -10.2383,-3.90235 -14.1445,0 l -38.0743,38.07812 -15.1757,-15.17578 c -3.9063,-3.90625 -10.2344,-3.90625 -14.1446,0 -3.9023,3.90235 -3.9023,10.23438 0,14.14063 z m 0,0"
     id="path34" />
  <path
     d="m 360.0977,450.14453 15.5039,15.5 c 1.9531,1.95313 4.5117,2.92969 7.0703,2.92969 2.5586,0 5.1172,-0.97656 7.0703,-2.92969 3.9062,-3.90625 3.9062,-10.23828 0,-14.14062 L 374.2422,436 l 15.5,-15.50391 c 3.9062,-3.90234 3.9062,-10.23437 0,-14.14062 -3.9063,-3.90625 -10.2344,-3.90625 -14.1406,0 l -15.5039,15.5 -15.5,-15.5 c -3.9063,-3.90235 -10.2344,-3.90625 -14.1446,0 -3.9023,3.90625 -3.9023,10.23828 0,14.14062 L 345.957,436 330.4531,451.50391 c -3.9023,3.90234 -3.9023,10.23437 0,14.14062 1.9532,1.95313 4.5157,2.92969 7.0742,2.92969 2.5586,0 5.1172,-0.97656 7.0704,-2.92969 z m 0,0"
     id="path36" />
</svg>
