<?xml version="1.0" encoding="utf-8"?><svg xml:space="preserve" viewBox="0 0 100 100" y="0" x="0" xmlns="http://www.w3.org/2000/svg" id="Layer_1" version="1.1" width="200px" height="200px" xmlns:xlink="http://www.w3.org/1999/xlink" style="width:100%;height:100%;background-size:initial;background-repeat-y:initial;background-repeat-x:initial;background-position-y:initial;background-position-x:initial;background-origin:initial;background-image:initial;background-color:rgb(255, 255, 255);background-clip:initial;background-attachment:initial;animation-play-state:paused" ><g class="ldl-scale" style="transform-origin:50% 50%;transform:rotate(0deg) scale(0.8, 0.8);animation-play-state:paused" ><path d="M12.9 22.8h64.5v41.7H12.9z" fill="#e0e0e0" style="fill:rgb(224, 224, 224);animation-play-state:paused" ></path>
<path d="M12.9 22.8h64.5v41.7H12.9z" fill="none" style="animation-play-state:paused" ></path>
<path d="M77.9 17.6c-.3-.1-.6-.1-1-.1H13.3c-2.8 0-5.2 2-5.7 4.6v43.1c.1.7.4 1.3.7 1.8 1 1.7 2.9 2.8 5 2.8H77c3.2 0 5.8-2.6 5.8-5.8V23.3c0-2.9-2.1-5.3-4.9-5.7zm-.5 46.9H12.9V22.8h64.5v41.7z" style="animation-play-state:paused" ></path>
<circle fill="none" r="1.4" cy="82.2" cx="72.7" style="animation-play-state:paused" ></circle>
<circle fill="none" r=".4" cy="75.5" cx="26.2" style="animation-play-state:paused" ></circle>
<path fill="#010101" d="M7.5 23.3v40.8c0 .4 0 .8.1 1.2V22.1c-.1.4-.1.8-.1 1.2z" style="fill:rgb(1, 1, 1);animation-play-state:paused" ></path>
<path fill="#e0e0e0" d="M7.6 67.1h.7c-.3-.6-.6-1.2-.7-1.8v1.8z" style="fill:rgb(224, 224, 224);animation-play-state:paused" ></path>
<path d="M64.3 42h25.1v34.1H64.3z" fill="#e0e0e0" style="fill:rgb(224, 224, 224);animation-play-state:paused" ></path>
<path d="M64.3 42h25.1v34.1H64.3z" fill="none" style="animation-play-state:paused" ></path>
<path d="M64.3 42h25.1v34.1H64.3z" fill="none" style="animation-play-state:paused" ></path>
<circle fill="#666" r="1.7" cy="79.3" cx="76.8" style="fill:rgb(102, 102, 102);animation-play-state:paused" ></circle>
<path fill="#333" d="M89.5 37.2H64.2c-1.6 0-3 1.3-3 3v39.3c0 1.6 1.3 3 3 3h25.4c1.6 0 3-1.3 3-3V40.2c-.1-1.6-1.4-3-3.1-3zM76.8 81c-.9 0-1.7-.8-1.7-1.7 0-.9.8-1.7 1.7-1.7.9 0 1.7.8 1.7 1.7 0 .9-.7 1.7-1.7 1.7zm12.6-4.9H64.3V42h25.1v34.1z" style="fill:rgb(51, 51, 51);animation-play-state:paused" ></path>
<path d="M17.3 79.5h10.5V63.3H17.3z" fill="#e0e0e0" style="fill:rgb(224, 224, 224);animation-play-state:paused" ></path>
<path fill="#333" d="M27.8 61.1H17.2c-.8 0-1.4.6-1.4 1.4v18.6c0 .8.6 1.4 1.4 1.4H27.8c.8 0 1.4-.6 1.4-1.4V62.5c0-.8-.6-1.4-1.4-1.4zm0 18.4H17.4V63.3h10.5v16.2z" style="fill:rgb(51, 51, 51);animation-play-state:paused" ></path>
<path d="M50.2 69.9H39.9L37.3 78h15.5z" fill="#333" style="fill:rgb(51, 51, 51);animation-play-state:paused" ></path>
<path d="M34.4 78c-1.2 0-2.3 1-2.3 2.2 0 1.2 1 2.2 2.3 2.2H56c1.2 0 2.3-1 2.3-2.2 0-1.2-1-2.2-2.3-2.2H34.4z" style="animation-play-state:paused" ></path>
<metadata xmlns:d="https://loading.io/stock/" style="animation-play-state:paused" ><d:name style="animation-play-state:paused" >responsive</d:name>


<d:tags style="animation-play-state:paused" >cross platform,device,adapative design,mobile,screen,responsive,web application</d:tags>


<d:license style="animation-play-state:paused" >by</d:license>


<d:slug style="animation-play-state:paused" >sqtf14</d:slug></metadata></g><!-- generated by https://loading.io/ --></svg>