<svg id="svg" version="1.1" xmlns="http://www.w3.org/2000/svg" xmlns:xlink="http://www.w3.org/1999/xlink" width="400" height="400" viewBox="0, 0, 400,400"><g id="svgg"><path id="path0" d="M90.545 26.545 L 80.000 37.091 80.000 200.000 L 80.000 362.909 90.545 373.455 L 101.091 384.000 200.000 384.000 L 298.909 384.000 309.455 373.455 L 320.000 362.909 320.000 200.000 L 320.000 37.091 309.455 26.545 L 298.909 16.000 200.000 16.000 L 101.091 16.000 90.545 26.545 M256.909 43.000 C 253.325 62.887,250.310 64.000,200.000 64.000 C 149.690 64.000,146.675 62.887,143.091 43.000 L 141.109 32.000 200.000 32.000 L 258.891 32.000 256.909 43.000 M124.906 53.708 C 130.376 80.037,130.271 80.000,200.000 80.000 C 269.736 80.000,269.624 80.039,275.099 53.687 C 278.977 35.023,290.786 32.201,298.899 48.000 C 307.905 65.535,304.212 349.512,294.857 358.861 C 283.987 369.725,116.007 369.721,105.143 358.857 C 95.428 349.142,94.019 54.027,103.632 42.443 C 112.507 31.749,121.312 36.411,124.906 53.708 M168.000 48.000 C 168.000 54.933,170.667 56.000,188.000 56.000 C 205.333 56.000,208.000 54.933,208.000 48.000 C 208.000 41.067,205.333 40.000,188.000 40.000 C 170.667 40.000,168.000 41.067,168.000 48.000 M216.000 48.000 C 216.000 53.333,218.667 56.000,224.000 56.000 C 229.333 56.000,232.000 53.333,232.000 48.000 C 232.000 42.667,229.333 40.000,224.000 40.000 C 218.667 40.000,216.000 42.667,216.000 48.000 " stroke="none" fill="#000000" fill-rule="evenodd"></path></g></svg>