<?xml version="1.0"?><svg version="1.1" id="圖層_1" xmlns="http://www.w3.org/2000/svg" x="0" y="0" viewBox="0 0 100 100" xml:space="preserve"><path d="M78 69.813V54.5a4.5 4.5 0 0 0-4.5-4.5h-47a4.5 4.5 0 0 0-4.5 4.5v14.578" fill="none" stroke="#333" stroke-width="3.5" stroke-miterlimit="10"/><path fill="none" stroke="#333" stroke-width="3.5" stroke-miterlimit="10" d="M50 30.922v38.156"/><g><path d="M28.628 59.078H15.372A3.372 3.372 0 0 0 12 62.45v13.255a3.372 3.372 0 0 0 3.372 3.372h13.255a3.372 3.372 0 0 0 3.372-3.372V62.45a3.37 3.37 0 0 0-3.371-3.372z" fill="#abbd81" stroke="#333" stroke-width="3.5" stroke-miterlimit="10"/><path d="M28.628 59.078h-3.5A3.372 3.372 0 0 1 28.5 62.45v13.255a3.372 3.372 0 0 1-3.372 3.372h3.5A3.372 3.372 0 0 0 32 75.705V62.451a3.373 3.373 0 0 0-3.372-3.373z" fill="#abbd81" opacity=".2" stroke="#000" stroke-width="3.5" stroke-miterlimit="10"/><path fill="none" stroke="#fff" stroke-width="3.5" stroke-linecap="round" stroke-miterlimit="10" d="M17.75 73.542v.208"/><path fill="none" stroke="#fff" stroke-width="3.5" stroke-linecap="round" stroke-miterlimit="10" d="M17.75 64.25v4.292"/></g><g><path d="M56.628 59.078H43.372A3.372 3.372 0 0 0 40 62.45v13.255a3.372 3.372 0 0 0 3.372 3.372h13.255a3.372 3.372 0 0 0 3.372-3.372V62.45a3.37 3.37 0 0 0-3.371-3.372z" fill="#abbd81" stroke="#333" stroke-width="3.5" stroke-miterlimit="10"/><path d="M56.628 59.078h-3.5A3.372 3.372 0 0 1 56.5 62.45v13.255a3.372 3.372 0 0 1-3.372 3.372h3.5A3.372 3.372 0 0 0 60 75.705V62.451a3.373 3.373 0 0 0-3.372-3.373z" fill="#abbd81" opacity=".2" stroke="#000" stroke-width="3.5" stroke-miterlimit="10"/><path fill="none" stroke="#fff" stroke-width="3.5" stroke-linecap="round" stroke-miterlimit="10" d="M45.75 73.542v.208"/><path fill="none" stroke="#fff" stroke-width="3.5" stroke-linecap="round" stroke-miterlimit="10" d="M45.75 64.25v4.292"/></g><g><path d="M56.628 40.922H43.372A3.372 3.372 0 0 1 40 37.55V24.294a3.372 3.372 0 0 1 3.372-3.372h13.255a3.372 3.372 0 0 1 3.372 3.372V37.55a3.37 3.37 0 0 1-3.371 3.372z" fill="#f8b26a" stroke-width="3.5" stroke="#333" stroke-miterlimit="10"/><path d="M56.628 20.922h-3.5a3.372 3.372 0 0 1 3.372 3.372v13.255a3.372 3.372 0 0 1-3.372 3.372h3.5A3.372 3.372 0 0 0 60 37.549V24.294a3.372 3.372 0 0 0-3.372-3.372z" fill="#f8b26a" opacity=".2" stroke="#000" stroke-width="3.5" stroke-miterlimit="10"/><path fill="none" stroke="#fff" stroke-width="3.5" stroke-linecap="round" stroke-miterlimit="10" d="M45.75 35.542v.208"/><path fill="none" stroke="#fff" stroke-width="3.5" stroke-linecap="round" stroke-miterlimit="10" d="M45.75 26.25v4.292"/></g><g><path d="M84.628 59.078H71.372A3.372 3.372 0 0 0 68 62.45v13.255a3.372 3.372 0 0 0 3.372 3.372h13.255a3.372 3.372 0 0 0 3.372-3.372V62.45a3.37 3.37 0 0 0-3.371-3.372z" fill="#abbd81" stroke="#333" stroke-width="3.5" stroke-miterlimit="10"/><path d="M84.628 59.078h-3.5A3.372 3.372 0 0 1 84.5 62.45v13.255a3.372 3.372 0 0 1-3.372 3.372h3.5A3.372 3.372 0 0 0 88 75.705V62.451a3.373 3.373 0 0 0-3.372-3.373z" fill="#abbd81" opacity=".2" stroke="#000" stroke-width="3.5" stroke-miterlimit="10"/><path fill="none" stroke="#fff" stroke-width="3.5" stroke-linecap="round" stroke-miterlimit="10" d="M73.75 73.542v.208"/><path fill="none" stroke="#fff" stroke-width="3.5" stroke-linecap="round" stroke-miterlimit="10" d="M73.75 64.25v4.292"/></g><metadata xmlns:d="https://loading.io/stock/">
<d:name>network</d:name>
<d:tags>network,hierarchy,social,management,company,connection,graph,chart,link,relationship,class</d:tags>
<d:license>by</d:license>
<d:slug>7gt2nf</d:slug>
</metadata></svg>