<?xml version="1.0" encoding="UTF-8" standalone="no"?>
<svg
   xmlns:dc="http://purl.org/dc/elements/1.1/"
   xmlns:cc="http://creativecommons.org/ns#"
   xmlns:rdf="http://www.w3.org/1999/02/22-rdf-syntax-ns#"
   xmlns:svg="http://www.w3.org/2000/svg"
   xmlns="http://www.w3.org/2000/svg"
   width="256"
   height="256"
   viewBox="0 0 67.733333 67.733333"
   version="1.1"
   id="svg451">
  <defs
     id="defs445" />
  <metadata
     id="metadata448">
    <rdf:RDF>
      <cc:Work
         rdf:about="">
        <dc:format>image/svg+xml</dc:format>
        <dc:type
           rdf:resource="http://purl.org/dc/dcmitype/StillImage" />
        <dc:title></dc:title>
      </cc:Work>
    </rdf:RDF>
  </metadata>
  <g
     id="layer1">
    <path
       style="fill:none;stroke:#666666;stroke-width:0.926042;stroke-linecap:butt;stroke-linejoin:miter;stroke-miterlimit:4;stroke-dasharray:none;stroke-opacity:1"
       d="m 37.936914,35.959209 13.907384,1.008808"
       id="path552-1-8-5-7" />
    <path
       style="fill:none;stroke:#666666;stroke-width:0.926042;stroke-linecap:butt;stroke-linejoin:miter;stroke-miterlimit:4;stroke-dasharray:none;stroke-opacity:1"
       d="M 34.366872,28.543355 44.169653,16.451394"
       id="path552-1-8" />
    <path
       style="fill:none;stroke:#666666;stroke-width:0.926042;stroke-linecap:butt;stroke-linejoin:miter;stroke-miterlimit:4;stroke-dasharray:none;stroke-opacity:1"
       d="m 35.633044,43.348673 6.610926,8.492354"
       id="path552-1-8-5" />
    <path
       style="fill:none;stroke:#666666;stroke-width:0.926042;stroke-linecap:butt;stroke-linejoin:miter;stroke-miterlimit:4;stroke-dasharray:none;stroke-opacity:1"
       d="m 16.285388,50.955443 6.809363,-6.853479"
       id="path552-1" />
    <path
       style="opacity:1;fill:none;stroke:#666666;stroke-width:0.926042;stroke-linecap:butt;stroke-linejoin:miter;stroke-miterlimit:4;stroke-dasharray:none;stroke-opacity:1"
       d="m 15.885111,25.859503 5.191711,3.788546"
       id="path552" />
    <path
       id="path453"
       style="fill:#ff0000;fill-rule:evenodd;stroke-width:0.264583"
       d="m 12.014231,18.023768 a 5.2916663,5.2916663 0 0 0 -5.2916667,5.291667 5.2916663,5.2916663 0 0 0 5.2916667,5.291667 5.2916663,5.2916663 0 0 0 5.291667,-5.291667 5.2916663,5.2916663 0 0 0 -5.291667,-5.291667 z m -0.02997,1.322917 a 3.96875,3.96875 0 0 1 0.02997,0 3.96875,3.96875 0 0 1 3.96875,3.96875 3.96875,3.96875 0 0 1 -3.96875,3.96875 3.96875,3.96875 0 0 1 -3.9687507,-3.96875 3.96875,3.96875 0 0 1 3.9387787,-3.96875 z" />
    <path
       id="path453-4"
       style="fill:#ff0000;fill-rule:evenodd;stroke-width:0.264583"
       d="m 46.806939,6.8266511 a 5.2916663,5.2916663 0 0 0 -5.291666,5.2916679 5.2916663,5.2916663 0 0 0 5.291666,5.291668 5.2916663,5.2916663 0 0 0 5.291667,-5.291668 5.2916663,5.2916663 0 0 0 -5.291667,-5.2916679 z m -0.02997,1.322917 a 3.96875,3.96875 0 0 1 0.02997,0 3.96875,3.96875 0 0 1 3.96875,3.9687509 3.96875,3.96875 0 0 1 -3.96875,3.968751 3.96875,3.96875 0 0 1 -3.96875,-3.968751 3.96875,3.96875 0 0 1 3.938778,-3.9687509 z" />
    <path
       id="path453-4-0"
       style="fill:#ff0000;fill-rule:evenodd;stroke-width:0.264583"
       d="m 12.976267,48.983911 a 5.2916663,5.2916663 0 0 0 -5.2916667,5.291667 5.2916663,5.2916663 0 0 0 5.2916667,5.291667 5.2916663,5.2916663 0 0 0 5.291667,-5.291667 5.2916663,5.2916663 0 0 0 -5.291667,-5.291667 z m -0.02997,1.322917 a 3.96875,3.96875 0 0 1 0.02997,0 3.96875,3.96875 0 0 1 3.96875,3.96875 3.96875,3.96875 0 0 1 -3.96875,3.96875 3.96875,3.96875 0 0 1 -3.9687507,-3.96875 3.96875,3.96875 0 0 1 3.9387787,-3.96875 z" />
    <path
       id="path453-4-0-0"
       style="fill:#ff0000;fill-rule:evenodd;stroke-width:0.264583"
       d="m 45.255434,50.174537 a 5.2916663,5.2916663 0 0 0 -5.291666,5.291667 5.2916663,5.2916663 0 0 0 5.291666,5.291667 5.2916663,5.2916663 0 0 0 5.291667,-5.291667 5.2916663,5.2916663 0 0 0 -5.291667,-5.291667 z m -0.02997,1.322917 a 3.96875,3.96875 0 0 1 0.02997,0 3.96875,3.96875 0 0 1 3.96875,3.96875 3.96875,3.96875 0 0 1 -3.96875,3.96875 3.96875,3.96875 0 0 1 -3.96875,-3.96875 3.96875,3.96875 0 0 1 3.938778,-3.96875 z" />
    <path
       id="path453-4-0-0-9"
       style="fill:#000000;fill-rule:evenodd;stroke-width:0.529166"
       d="M 28.718973,25.83287 A 10.583333,10.583332 0 0 0 18.135641,36.416203 10.583333,10.583332 0 0 0 28.718973,46.999537 10.583333,10.583332 0 0 0 39.302308,36.416203 10.583333,10.583332 0 0 0 28.718973,25.83287 Z m -0.05994,2.645834 a 7.9375002,7.9374995 0 0 1 0.05994,0 7.9375002,7.9374995 0 0 1 7.9375,7.937499 7.9375002,7.9374995 0 0 1 -7.9375,7.9375 7.9375002,7.9374995 0 0 1 -7.9375,-7.9375 7.9375002,7.9374995 0 0 1 7.877556,-7.937499 z" />
    <path
       style="fill:#ff0000;stroke-width:0.5"
       d=""
       id="path546"
       transform="scale(0.26458333)" />
    <path
       id="path453-4-0-0-7"
       style="fill:#ff0000;fill-rule:evenodd;stroke-width:0.264583"
       d="m 56.726649,32.869374 a 5.2916663,5.2916663 0 0 0 -5.291666,5.291667 5.2916663,5.2916663 0 0 0 5.291666,5.291667 5.2916663,5.2916663 0 0 0 5.291667,-5.291667 5.2916663,5.2916663 0 0 0 -5.291667,-5.291667 z m -0.02997,1.322917 a 3.96875,3.96875 0 0 1 0.02997,0 3.96875,3.96875 0 0 1 3.96875,3.96875 3.96875,3.96875 0 0 1 -3.96875,3.96875 3.96875,3.96875 0 0 1 -3.96875,-3.96875 3.96875,3.96875 0 0 1 3.938778,-3.96875 z" />
  </g>
</svg>
