<?xml version="1.0" encoding="UTF-8" standalone="no"?>
<svg
   xmlns:d="https://loading.io/stock/"
   xmlns:dc="http://purl.org/dc/elements/1.1/"
   xmlns:cc="http://creativecommons.org/ns#"
   xmlns:rdf="http://www.w3.org/1999/02/22-rdf-syntax-ns#"
   xmlns:svg="http://www.w3.org/2000/svg"
   xmlns="http://www.w3.org/2000/svg"
   xmlns:sodipodi="http://sodipodi.sourceforge.net/DTD/sodipodi-0.dtd"
   xmlns:inkscape="http://www.inkscape.org/namespaces/inkscape"
   xml:space="preserve"
   viewBox="0 0 53.700001 85.199997"
   y="0"
   x="0"
   id="Layer_1"
   version="1.1"
   width="107.4"
   height="170.39999"
   sodipodi:docname="phone.svg"
   inkscape:version="1.0.2 (e86c8708, 2021-01-15)"><metadata
     id="metadata1843"><rdf:RDF><cc:Work
         rdf:about=""><dc:format>image/svg+xml</dc:format><dc:type
           rdf:resource="http://purl.org/dc/dcmitype/StillImage" /><dc:title></dc:title></cc:Work></rdf:RDF></metadata><defs
     id="defs1841" /><sodipodi:namedview
     pagecolor="#ffffff"
     bordercolor="#666666"
     borderopacity="1"
     objecttolerance="10"
     gridtolerance="10"
     guidetolerance="10"
     inkscape:pageopacity="0"
     inkscape:pageshadow="2"
     inkscape:window-width="716"
     inkscape:window-height="480"
     id="namedview1839"
     showgrid="false"
     fit-margin-top="0"
     fit-margin-left="0"
     fit-margin-right="0"
     fit-margin-bottom="0"
     inkscape:zoom="0.91875"
     inkscape:cx="53.8"
     inkscape:cy="85.2"
     inkscape:window-x="0"
     inkscape:window-y="0"
     inkscape:window-maximized="0"
     inkscape:current-layer="Layer_1" /><g
     class="ldl-scale"
     id="g1836"
     transform="translate(-23.1,-7.4)"><path
   d="m 29.1,16.4 h 41.7 v 64 H 29.1 Z"
   fill="#e0e0e0"
   transform="matrix(1,-0.00361,0.00361,1,-0.174,0.18)"
   style="fill:#e0e0e0"
   id="path1828" />
<circle
   r="3"
   fill="#666"
   cy="86.599998"
   cx="50.099998"
   transform="matrix(1,-0.00361,0.00361,1,-0.312,0.181)"
   style="fill:#666666"
   id="circle1830" />
<path
   d="M 70.9,7.4 28.7,7.6 c -3.1,0 -5.6,2.5 -5.6,5.6 L 23.4,87 c 0,3.1 2.5,5.6 5.6,5.6 l 42.2,-0.2 c 3.1,0 5.6,-2.5 5.6,-5.6 L 76.5,13 C 76.5,9.9 74,7.4 70.9,7.4 Z M 50.1,89.5 c -1.6,0 -3,-1.3 -3,-3 0,-1.6 1.3,-3 3,-3 1.7,0 3,1.3 3,3 0,1.7 -1.3,3 -3,3 z M 70.9,80.4 29.2,80.6 29,16.6 70.7,16.4 Z"
   id="path1832" />
<metadata
   id="metadata1834"><d:name
   style="animation-play-state:paused">phone</d:name>
<d:tags
   style="animation-play-state:paused">mobile,iphone,android,tablet,cell,call,dial,phone,web application</d:tags>
<d:license
   style="animation-play-state:paused">pro</d:license>
<d:slug
   style="animation-play-state:paused">tom5b6</d:slug></metadata></g><!-- generated by https://loading.io/ --></svg>
