<?xml version="1.0" encoding="utf-8"?><svg xml:space="preserve" viewBox="0 0 100 100" y="0" x="0" xmlns="http://www.w3.org/2000/svg" id="Layer_1" version="1.1" width="200px" height="200px" xmlns:xlink="http://www.w3.org/1999/xlink" style="width:100%;height:100%;background-size:initial;background-repeat-y:initial;background-repeat-x:initial;background-position-y:initial;background-position-x:initial;background-origin:initial;background-image:initial;background-color:rgb(255, 255, 255);background-clip:initial;background-attachment:initial;animation-play-state:paused" ><g class="ldl-scale" style="transform-origin:50% 50%;transform:rotate(0deg) scale(0.8, 0.8);animation-play-state:paused" ><path d="M29.1 16.4h41.7v64H29.1z" fill="#e0e0e0" transform="matrix(1 -.00361 .00361 1 -.174 .18)" style="fill:rgb(224, 224, 224);animation-play-state:paused" ></path>
<circle r="3" fill="#666" cy="86.6" cx="50.1" transform="matrix(1 -.00361 .00361 1 -.312 .181)" style="fill:rgb(102, 102, 102);animation-play-state:paused" ></circle>
<path d="M70.9 7.4l-42.2.2c-3.1 0-5.6 2.5-5.6 5.6l.3 73.8c0 3.1 2.5 5.6 5.6 5.6l42.2-.2c3.1 0 5.6-2.5 5.6-5.6L76.5 13c0-3.1-2.5-5.6-5.6-5.6zM50.1 89.5c-1.6 0-3-1.3-3-3 0-1.6 1.3-3 3-3s3 1.3 3 3-1.3 3-3 3zm20.8-9.1l-41.7.2-.2-64 41.7-.2.2 64z" style="animation-play-state:paused" ></path>
<metadata xmlns:d="https://loading.io/stock/" style="animation-play-state:paused" ><d:name style="animation-play-state:paused" >phone</d:name>
<d:tags style="animation-play-state:paused" >mobile,iphone,android,tablet,cell,call,dial,phone,web application</d:tags>
<d:license style="animation-play-state:paused" >pro</d:license>
<d:slug style="animation-play-state:paused" >tom5b6</d:slug></metadata></g><!-- generated by https://loading.io/ --></svg>