<?xml version="1.0" encoding="UTF-8" standalone="no"?>
<svg
   xmlns:d="https://loading.io/stock/"
   xmlns:dc="http://purl.org/dc/elements/1.1/"
   xmlns:cc="http://creativecommons.org/ns#"
   xmlns:rdf="http://www.w3.org/1999/02/22-rdf-syntax-ns#"
   xmlns:svg="http://www.w3.org/2000/svg"
   xmlns="http://www.w3.org/2000/svg"
   xmlns:sodipodi="http://sodipodi.sourceforge.net/DTD/sodipodi-0.dtd"
   xmlns:inkscape="http://www.inkscape.org/namespaces/inkscape"
   xml:space="preserve"
   viewBox="0 0 84.5 78.150002"
   y="0"
   x="0"
   id="Layer_1"
   version="1.1"
   width="169"
   height="156.3"
   sodipodi:docname="pot.svg"
   inkscape:version="1.0.2 (e86c8708, 2021-01-15)"><metadata
     id="metadata2559"><rdf:RDF><cc:Work
         rdf:about=""><dc:format>image/svg+xml</dc:format><dc:type
           rdf:resource="http://purl.org/dc/dcmitype/StillImage" /><dc:title></dc:title></cc:Work></rdf:RDF></metadata><defs
     id="defs2557" /><sodipodi:namedview
     pagecolor="#ffffff"
     bordercolor="#666666"
     borderopacity="1"
     objecttolerance="10"
     gridtolerance="10"
     guidetolerance="10"
     inkscape:pageopacity="0"
     inkscape:pageshadow="2"
     inkscape:window-width="1680"
     inkscape:window-height="1022"
     id="namedview2555"
     showgrid="false"
     fit-margin-top="0"
     fit-margin-left="0"
     fit-margin-right="0"
     fit-margin-bottom="0"
     inkscape:zoom="1.8375"
     inkscape:cx="84.5"
     inkscape:cy="79.9"
     inkscape:window-x="0"
     inkscape:window-y="0"
     inkscape:window-maximized="1"
     inkscape:current-layer="Layer_1" /><g
     class="ldl-scale"
     id="g2552"
     transform="translate(-7.75,-10.05)"><path
   stroke-miterlimit="10"
   stroke-linecap="round"
   fill="none"
   stroke="#333"
   stroke-width="4.5"
   d="M 74.4,56.3 C 75,52.1 86,46.8 90,46.7"
   style="stroke:#333333"
   id="path2538" />
<path
   stroke-miterlimit="10"
   stroke-linecap="round"
   fill="none"
   stroke="#333"
   stroke-width="4.5"
   d="M 25.6,56.3 C 25,52.1 14,46.8 10,46.7"
   style="stroke:#333333"
   id="path2540" />
<path
   stroke-miterlimit="10"
   stroke-linecap="round"
   fill="none"
   stroke="#333"
   stroke-width="3.5"
   d="m 39.1,25.7 v -8.3 c 0,-3.1 2.5,-5.6 5.6,-5.6 h 10.6 c 3.1,0 5.6,2.5 5.6,5.6 v 8.3"
   style="stroke:#333333"
   id="path2542" />
<path
   fill="#333"
   d="m 78.5,30.6 c 0.6,0 0.8,-1.4 0.2,-1.8 -8.4,-5.1 -18.2,-8 -28.7,-8 -10.5,0 -20.4,2.9 -28.7,8 -0.6,0.4 -0.4,1.8 0.2,1.8 z"
   style="fill:#333333"
   id="path2544" />
<path
   fill="#e0e0e0"
   d="M 68.3,88.2 H 31.7 C 25.4,88.2 20.4,83.1 20.4,76.9 V 37 h 59.2 v 39.9 c 0,6.2 -5,11.3 -11.3,11.3 z"
   style="fill:#e0e0e0"
   id="path2546" />
<path
   fill="#999"
   d="m 82.5,38.3 h -65 c -1.4,0 -2.6,-1.2 -2.6,-2.6 v -2.5 c 0,-1.4 1.2,-2.6 2.6,-2.6 h 65 c 1.4,0 2.6,1.2 2.6,2.6 v 2.5 c 0,1.4 -1.2,2.6 -2.6,2.6 z"
   style="fill:#999999"
   id="path2548" />
<metadata
   id="metadata2550"><d:name
   style="animation-play-state:paused">pot</d:name>
<d:tags
   style="animation-play-state:paused">pot,crock,kitchenware,kitchen utensils,pan,wok,steamboat,cauldron,bowl,basin,jar,urn</d:tags>
<d:license
   style="animation-play-state:paused">by</d:license>
<d:slug
   style="animation-play-state:paused">747mey</d:slug></metadata></g><!-- generated by https://loading.io/ --></svg>
