<?xml version="1.0" encoding="UTF-8" standalone="no"?>
<svg
   xmlns:d="https://loading.io/stock/"
   xmlns:dc="http://purl.org/dc/elements/1.1/"
   xmlns:cc="http://creativecommons.org/ns#"
   xmlns:rdf="http://www.w3.org/1999/02/22-rdf-syntax-ns#"
   xmlns:svg="http://www.w3.org/2000/svg"
   xmlns="http://www.w3.org/2000/svg"
   xmlns:sodipodi="http://sodipodi.sourceforge.net/DTD/sodipodi-0.dtd"
   xmlns:inkscape="http://www.inkscape.org/namespaces/inkscape"
   xml:space="preserve"
   viewBox="0 0 86 84.599998"
   y="0"
   x="0"
   id="圖層_1"
   version="1.1"
   width="172"
   height="169.2"
   sodipodi:docname="sensor.svg"
   inkscape:version="1.0.2 (e86c8708, 2021-01-15)"><metadata
     id="metadata2507"><rdf:RDF><cc:Work
         rdf:about=""><dc:format>image/svg+xml</dc:format><dc:type
           rdf:resource="http://purl.org/dc/dcmitype/StillImage" /><dc:title></dc:title></cc:Work></rdf:RDF></metadata><defs
     id="defs2505" /><sodipodi:namedview
     pagecolor="#ffffff"
     bordercolor="#666666"
     borderopacity="1"
     objecttolerance="10"
     gridtolerance="10"
     guidetolerance="10"
     inkscape:pageopacity="0"
     inkscape:pageshadow="2"
     inkscape:window-width="1680"
     inkscape:window-height="1022"
     id="namedview2503"
     showgrid="false"
     fit-margin-top="0"
     fit-margin-left="0"
     fit-margin-right="0"
     fit-margin-bottom="0"
     inkscape:zoom="1.8375"
     inkscape:cx="86"
     inkscape:cy="87.6"
     inkscape:window-x="0"
     inkscape:window-y="0"
     inkscape:window-maximized="1"
     inkscape:current-layer="圖層_1" /><g
     class="ldl-scale"
     id="g2500"
     transform="translate(-7,-6.2)"><path
   fill="#f47e60"
   d="M 71.9,12.2 C 65.3,8.3 57.7,6.2 50,6.2 42.3,6.2 34.7,8.3 28.1,12.2 15.1,19.9 7,34.1 7,49.2 7,64.7 15.4,79 28.9,86.7 l 3,-5.2 C 20.2,74.9 13,62.5 13,49.2 13,36.2 20,24 31.2,17.3 36.9,13.9 43.4,12.2 50,12.2 56.6,12.2 63.1,14 68.8,17.3 80,24 87,36.2 87,49.2 87,62.5 79.8,74.9 68.2,81.4 l 3,5.2 C 84.6,79 93,64.7 93,49.2 93,34.1 84.9,19.9 71.9,12.2 Z"
   style="fill:#f47e60"
   id="path2488" />
<path
   fill="#e15b64"
   d="m 64.4,25.2 c -4.3,-2.6 -9.3,-4 -14.4,-4 -5.1,0 -10,1.4 -14.4,4 -8.4,5 -13.6,14.2 -13.6,24 0,10.1 5.5,19.5 14.4,24.5 l 2.9,-5.2 C 32.3,64.6 28,57.2 28,49.2 c 0,-7.8 4,-14.9 10.7,-18.9 3.4,-2 7.3,-3.1 11.3,-3.1 4,0 7.9,1.1 11.3,3.1 6.7,4.1 10.7,11.1 10.7,18.9 0,8 -4.3,15.3 -11.3,19.2 l 2.9,5.2 C 72.5,68.7 78,59.4 78,49.2 c 0,-9.8 -5.2,-19 -13.6,-24 z"
   style="fill:#e15b64"
   id="path2490" />
<g
   id="g2496"><path
   fill="#333"
   d="M 55.4,90.8 H 44.6 c -2.4,0 -4.2,-2.2 -3.7,-4.5 l 6.2,-30.5 h 5.7 L 59,86.3 c 0.6,2.3 -1.2,4.5 -3.6,4.5 z"
   style="fill:#333333"
   id="path2492" />
<circle
   fill="#333"
   r="10"
   cy="49.200001"
   cx="50"
   style="fill:#333333"
   id="circle2494" /></g>
<metadata
   id="metadata2498"><d:name
   style="animation-play-state:paused">broadcast</d:name>
<d:tags
   style="animation-play-state:paused">podcast,radio,signal,on air,radio,wifi,broadcast,web application</d:tags>
<d:license
   style="animation-play-state:paused">pro</d:license>
<d:slug
   style="animation-play-state:paused">kamndw</d:slug></metadata></g><!-- generated by https://loading.io/ --></svg>
