<?xml version="1.0" encoding="UTF-8" standalone="no"?>
<svg
   xmlns:dc="http://purl.org/dc/elements/1.1/"
   xmlns:cc="http://creativecommons.org/ns#"
   xmlns:rdf="http://www.w3.org/1999/02/22-rdf-syntax-ns#"
   xmlns:svg="http://www.w3.org/2000/svg"
   xmlns="http://www.w3.org/2000/svg"
   xmlns:sodipodi="http://sodipodi.sourceforge.net/DTD/sodipodi-0.dtd"
   xmlns:inkscape="http://www.inkscape.org/namespaces/inkscape"
   ng-switch-when="ubnt"
   ng-class="{&quot;ubntIcon&quot;:true,&quot;ubntIcon--logo&quot;:true}"
   viewBox="0 0 28.84762 28.84762"
   version="1.1"
   class="ubntIcon ubntIcon--logo"
   id="svg20"
   sodipodi:docname="unifi.svg"
   width="28.84762"
   height="28.84762"
   inkscape:version="1.0.2 (e86c8708, 2021-01-15)">
  <metadata
     id="metadata26">
    <rdf:RDF>
      <cc:Work
         rdf:about="">
        <dc:format>image/svg+xml</dc:format>
        <dc:type
           rdf:resource="http://purl.org/dc/dcmitype/StillImage" />
        <dc:title />
      </cc:Work>
    </rdf:RDF>
  </metadata>
  <defs
     id="defs24" />
  <sodipodi:namedview
     pagecolor="#ffffff"
     bordercolor="#666666"
     borderopacity="1"
     objecttolerance="10"
     gridtolerance="10"
     guidetolerance="10"
     inkscape:pageopacity="0"
     inkscape:pageshadow="2"
     inkscape:window-width="1680"
     inkscape:window-height="1022"
     id="namedview22"
     showgrid="false"
     fit-margin-top="0"
     fit-margin-left="0"
     fit-margin-right="0"
     fit-margin-bottom="0"
     inkscape:zoom="9.2807765"
     inkscape:cx="1.7488524"
     inkscape:cy="14.571428"
     inkscape:window-x="0"
     inkscape:window-y="0"
     inkscape:window-maximized="1"
     inkscape:current-layer="g14"
     inkscape:document-rotation="0" />
  <g
     transform="translate(-0.55059516,0.45714271)"
     id="g14"
     style="fill:#000000;fill-rule:evenodd;stroke:none;stroke-width:1">
    <path
       d="m 19.077476,6.4114367 c 0,-1.1245787 0.370078,-2.169946 1.110243,-3.1361333 0.740165,-0.9661873 2.662958,-1.4492737 5.768434,-1.4492737 V 13.539013 l -0.530985,1.710618 c -0.27354,0.871152 -0.611437,1.651218 -1.0137,2.34022 -0.402264,0.689003 -0.876928,1.286921 -1.424007,1.793773 -0.547079,0.506853 -1.162533,0.922624 -1.846382,1.247326 -0.683848,0.324703 -1.43607,0.566246 -2.256688,0.724637 0.06436,-0.348461 0.112633,-0.696917 0.144815,-1.045378 0.03218,-0.34846 0.04828,-0.688997 0.04828,-1.021619 z M 8.1198631,3.1565104 H 9.4955978 V 4.4869913 H 8.1198631 Z M 9.4955978,5.1759903 H 10.871337 V 6.5064711 H 9.4955978 Z M 8.1198631,6.8628498 H 9.4955978 V 8.1933306 H 8.1198631 Z M 6.7441284,8.8585711 H 8.1198631 V 10.21281 H 6.7441284 Z m -2.7514708,-7.0563 h 1.375735 V 3.1565104 H 3.9926576 Z M 10.871337,19.28859 c 0,1.156257 0.213196,2.162027 0.639596,3.01734 0.426399,0.855314 0.897041,1.568064 1.411939,2.138273 0.514897,0.570209 0.985539,0.993899 1.411939,1.271084 l 0.639596,0.415776 c -1.721689,0 -3.262337,-0.241543 -4.621989,-0.724637 C 8.9927651,24.923332 7.8423075,24.250179 6.90101,23.386946 5.9597134,22.523713 5.2396715,21.506064 4.7408644,20.333968 4.2420573,19.161872 3.9926576,17.89476 3.9926576,16.532594 V 5.5086105 h 1.375735 v 7.3651615 h 1.3757358 v -1.330481 h 1.3757347 v 2.969823 H 9.4955978 V 9.5238115 h 1.3757392 z m 5.068498,2.779755 c 1.271153,0.04752 2.4377,-0.04752 3.499677,-0.285103 1.061976,-0.237587 2.015327,-0.629601 2.860081,-1.176051 0.844754,-0.546449 1.572841,-1.251281 2.184281,-2.114514 0.611442,-0.863232 1.102196,-1.89672 1.472279,-3.100495 v 1.140412 c 0,1.298809 -0.221242,2.506525 -0.663732,3.623185 -0.44249,1.116659 -1.090125,2.098671 -1.942924,2.946064 -0.8528,0.847394 -1.890625,1.532426 -3.113507,2.055117 -1.222881,0.522692 -2.614693,0.831551 -4.175477,0.926585 l -0.820614,-0.427654 c -0.06436,-0.04752 -0.595342,-0.463289 -1.592956,-1.247326 -0.997615,-0.784037 -1.681453,-1.967995 -2.051535,-3.551909 0.547079,0.332623 1.178623,0.605844 1.894653,0.819672 0.716029,0.213828 1.532612,0.344499 2.449774,0.392017 z M 6.7441284,4.5107499 H 8.0957271 V 5.8412307 H 6.7441284 Z"
       id="path10"
       style="fill:#0474fc;fill-opacity:1;stroke-width:0.868885" />
  </g>
</svg>
