<svg ng-switch-when="ubnt" ng-class="{&quot;ubntIcon&quot;:true,&quot;ubntIcon--logo&quot;:true}" viewBox="0 0 27 28" version="1.1" xmlns="http://www.w3.org/2000/svg" xmlns:xlink="http://www.w3.org/1999/xlink" class="ubntIcon ubntIcon--logo"><g stroke="none" stroke-width="1" fill="none" fill-rule="evenodd"><g transform="translate(-17.000000, -11.000000)" fill="currentColor"><g transform="translate(16.000000, 11.000000)"><path d="M18.6736111,5.3046875 C18.6736111,4.0104102 19.0995328,2.80729723 19.9513889,1.6953125 C20.803245,0.583327773 23.0161858,0.02734375 26.5902778,0.02734375 L26.5902778,13.5078125 L25.9791667,15.4765625 C25.6643503,16.4791717 25.2754653,17.3769492 24.8125,18.1699219 C24.3495347,18.9628946 23.8032439,19.6510387 23.1736111,20.234375 C22.5439783,20.8177113 21.8356521,21.2962221 21.0486111,21.6699219 C20.2615701,22.0436217 19.3958381,22.3216137 18.4513889,22.5039062 C18.5254633,22.1028626 18.5810183,21.7018249 18.6180556,21.3007812 C18.6550928,20.8997376 18.6736111,20.5078144 18.6736111,20.125 L18.6736111,5.3046875 Z M6.0625,1.55859375 L7.64583333,1.55859375 L7.64583333,3.08984375 L6.0625,3.08984375 L6.0625,1.55859375 Z M7.64583333,3.8828125 L9.22916667,3.8828125 L9.22916667,5.4140625 L7.64583333,5.4140625 L7.64583333,3.8828125 Z M6.0625,5.82421875 L7.64583333,5.82421875 L7.64583333,7.35546875 L6.0625,7.35546875 L6.0625,5.82421875 Z M4.47916667,8.12109375 L6.0625,8.12109375 L6.0625,9.6796875 L4.47916667,9.6796875 L4.47916667,8.12109375 Z M1.3125,0 L2.89583333,0 L2.89583333,1.55859375 L1.3125,1.55859375 L1.3125,0 Z M9.22916667,20.125 C9.22916667,21.4557358 9.47453458,22.6132763 9.96527778,23.5976563 C10.456021,24.5820362 10.9976822,25.4023405 11.5902778,26.0585938 C12.1828733,26.714847 12.7245346,27.2024724 13.2152778,27.5214844 L13.9513889,28 C11.9698975,28 10.1967671,27.722008 8.63194444,27.1660156 C7.06712181,26.6100233 5.74306097,25.8352914 4.65972222,24.8417969 C3.57638347,23.8483023 2.74768806,22.6770901 2.17361111,21.328125 C1.59953417,19.9791599 1.3125,18.5208412 1.3125,16.953125 L1.3125,4.265625 L2.89583333,4.265625 L2.89583333,12.7421875 L4.47916667,12.7421875 L4.47916667,11.2109375 L6.0625,11.2109375 L6.0625,14.6289063 L7.64583333,14.6289063 L7.64583333,8.88671875 L9.22916667,8.88671875 L9.22916667,20.125 Z M15.0625,23.3242188 C16.5254703,23.3789065 17.8680494,23.2695326 19.0902778,22.9960938 C20.3125061,22.7226549 21.4097174,22.2714875 22.3819444,21.6425781 C23.3541715,21.0136687 24.1921261,20.2024789 24.8958333,19.2089844 C25.5995406,18.2154898 26.1643497,17.0260486 26.5902778,15.640625 L26.5902778,16.953125 C26.5902778,18.4479241 26.3356507,19.8378842 25.8263889,21.1230469 C25.3171271,22.4082096 24.5717642,23.5384066 23.5902778,24.5136719 C22.6087914,25.4889372 21.4143589,26.2773407 20.0069444,26.8789063 C18.59953,27.4804718 16.9976942,27.835937 15.2013889,27.9453125 L14.2569444,27.453125 C14.18287,27.3984372 13.571765,26.9199264 12.4236111,26.0175781 C11.2754572,25.1152299 10.4884281,23.7526133 10.0625,21.9296875 C10.6921328,22.3125019 11.4189774,22.6269519 12.2430556,22.8730469 C13.0671337,23.1191419 14.0069392,23.269531 15.0625,23.3242188 Z M4.47916667,3.1171875 L6.03472222,3.1171875 L6.03472222,4.6484375 L4.47916667,4.6484375 L4.47916667,3.1171875 Z"></path><path d="M27.4451993,0 C27.5931469,0 27.7225991,0.0528376359 27.8335598,0.158514493 C27.9445205,0.26419135 28,0.391001676 28,0.538949275 C28,0.697464561 27.9445205,0.82955865 27.8335598,0.935235507 C27.7225991,1.04091236 27.5931469,1.09375 27.4451993,1.09375 C27.2972517,1.09375 27.1704413,1.04091236 27.0647645,0.935235507 C26.9590876,0.82955865 26.90625,0.697464561 26.90625,0.538949275 C26.90625,0.391001676 26.9590876,0.26419135 27.0647645,0.158514493 C27.1704413,0.0528376359 27.2972517,0 27.4451993,0 Z M27.4451993,1.01449275 C27.5720115,1.01449275 27.6803287,0.969580763 27.770154,0.879755435 C27.8599793,0.789930106 27.9048913,0.676329189 27.9048913,0.538949275 C27.9048913,0.412137047 27.8599793,0.303819894 27.770154,0.213994565 C27.6803287,0.124169237 27.5720115,0.0792572464 27.4451993,0.0792572464 C27.318387,0.0792572464 27.2127118,0.124169237 27.1281703,0.213994565 C27.0436288,0.303819894 27.0013587,0.412137047 27.0013587,0.538949275 C27.0013587,0.676329189 27.0436288,0.789930106 27.1281703,0.879755435 C27.2127118,0.969580763 27.318387,1.01449275 27.4451993,1.01449275 Z M27.6988225,0.412137681 C27.6988225,0.46497611 27.6856131,0.504604337 27.6591938,0.531023551 C27.6327746,0.557442765 27.5931464,0.575935938 27.540308,0.586503623 L27.7146739,0.855978261 L27.6195652,0.855978261 L27.4451993,0.586503623 L27.3342391,0.586503623 L27.3342391,0.855978261 L27.2391304,0.855978261 L27.2391304,0.22192029 L27.4769022,0.22192029 C27.5614437,0.22192029 27.6195651,0.237771581 27.6512681,0.269474638 C27.6829712,0.301177695 27.6988225,0.348731567 27.6988225,0.412137681 Z M27.4451993,0.507246377 C27.48747,0.507246377 27.5244564,0.501962613 27.5561594,0.491394928 C27.5878625,0.480827242 27.6037138,0.454408424 27.6037138,0.412137681 C27.6037138,0.369866938 27.5905044,0.340806239 27.5640851,0.32495471 C27.5376659,0.309103182 27.5033215,0.301177536 27.4610507,0.301177536 L27.3342391,0.301177536 L27.3342391,0.507246377 L27.4451993,0.507246377 Z"></path></g></g></g></svg>
